#!OML:ASF F:\VICON\USERDATA\INSTALL\rory3\rory3.ASF
:FULLY-SPECIFIED
:DEGREES
917
root 2.68491 17.8389 4.69351 5.80308 241.302 -6.04151
lowerback 21.0666 -1.5201 -2.10845
upperback 1.36445 -2.26544 5.01933
thorax -10.0298 -0.969385 7.48835
lowerneck -8.39068 -9.07039 -8.83156
upperneck 15.1082 -12.027 3.97464
head 6.76351 -6.08062 1.61255
rclavicle -5.64548e-014 -8.90555e-014
rhumerus -32.2725 -17.4051 -69.4703
rradius 60.0224
rwrist 37.1381
rhand -24.256 8.51962
rfingers 7.12502
rthumb 2.2301 -21.4485
lclavicle -5.64548e-014 -8.90555e-014
lhumerus -50.1555 3.16298 86.457
lradius 50.923
lwrist 7.59199
lhand -11.2591 50.1472
lfingers 7.12502
lthumb 14.7709 79.6008
rfemur -14.8412 6.22432 22.9789
rtibia 39.7751
rfoot -21.06 3.02771
rtoes 26.6906
lfemur -16.3663 4.13269 -23.0786
ltibia 42.8447
lfoot -15.7738 17.2553
ltoes -11.0478
918
root 2.67868 17.8316 4.67655 4.83853 240.299 -5.22676
lowerback 21.3091 -1.67661 -2.00639
upperback 1.38227 -2.45248 5.1239
thorax -10.1166 -1.06309 7.61922
lowerneck -8.64697 -9.0284 -9.14448
upperneck 15.5234 -11.9497 4.04891
head 6.96124 -6.05612 1.66935
rclavicle 6.87795e-014 -1.145e-013
rhumerus -30.3259 -17.0155 -70.0262
rradius 55.7435
rwrist 35.2073
rhand -22.0867 7.41713
rfingers 7.12502
rthumb 4.32507 -22.5187
lclavicle 6.87795e-014 -1.145e-013
lhumerus -50.0807 2.89801 86.7397
lradius 50.8083
lwrist 7.8841
lhand -11.9739 50.4683
lfingers 7.12502
lthumb 14.0821 79.9711
rfemur -14.4778 6.29751 23.2464
rtibia 39.4917
rfoot -20.7311 4.27615
rtoes 27.469
lfemur -17.0981 5.69037 -22.6816
ltibia 44.786
lfoot -14.6204 17.0315
ltoes -15.1609
919
root 2.6714 17.8486 4.65172 2.4 238.961 -2.79251
lowerback 21.6497 -1.75163 -1.22703
upperback 1.45449 -2.36583 5.49063
thorax -10.2507 -1.06168 7.582
lowerneck -8.64161 -9.02094 -9.09962
upperneck 15.6379 -11.9273 3.82991
head 6.97943 -6.06442 1.59366
rclavicle -4.25399e-014 2.06736e-014
rhumerus -28.3799 -16.8318 -70.548
rradius 51.4549
rwrist 33.3847
rhand -19.965 5.57101
rfingers 7.12502
rthumb 6.37358 -24.3131
lclavicle -4.25399e-014 2.06736e-014
lhumerus -50.0567 2.63768 86.9809
lradius 50.6525
lwrist 8.0018
lhand -11.8948 50.0815
lfingers 7.12502
lthumb 14.1584 79.5791
rfemur -13.8872 6.97068 24.5673
rtibia 39.02
rfoot -20.3365 5.06133
rtoes 31.722
lfemur -17.6423 6.39525 -21.2566
ltibia 46.6986
lfoot -15.1987 16.3179
ltoes -11.3224
920
root 2.6567 17.8477 4.65489 0.879212 237.224 -1.09984
lowerback 21.7071 -1.6438 -0.533721
upperback 1.51022 -2.06305 5.70915
thorax -10.2766 -0.957597 7.34069
lowerneck -8.50561 -9.06057 -8.85591
upperneck 15.5192 -11.9867 3.57572
head 6.88996 -6.10275 1.48008
rclavicle 1.98785e-014 -4.6118e-014
rhumerus -26.4552 -17.2666 -70.933
rradius 47.0856
rwrist 31.7402
rhand -17.3928 3.34721
rfingers 7.12502
rthumb 8.85631 -26.4469
lclavicle 1.98785e-014 -4.6118e-014
lhumerus -49.8789 2.17785 87.2257
lradius 50.2877
lwrist 7.8331
lhand -11.7923 49.4259
lfingers 7.12502
lthumb 14.2571 78.9165
rfemur -13.5727 7.6745 25.4663
rtibia 38.4915
rfoot -19.8719 5.78549
rtoes 33.5287
lfemur -18.5188 6.12651 -20.3817
ltibia 48.7947
lfoot -16.1485 16.0365
ltoes -6.74436
921
root 2.64968 17.844 4.66755 0.448627 235.795 -0.443943
lowerback 21.5032 -1.61839 -0.392827
upperback 1.62791 -2.01269 5.89098
thorax -10.0373 -0.95637 7.42996
lowerneck -8.64242 -9.06453 -8.56374
upperneck 15.3689 -11.9407 3.16384
head 6.81799 -6.09203 1.30954
rclavicle -5.32743e-014 1.04958e-013
rhumerus -24.1272 -18.0346 -71.1211
rradius 42.8915
rwrist 29.6776
rhand -13.8092 1.02312
rfingers 7.12502
rthumb 12.3131 -28.5943
lclavicle -5.32743e-014 1.04958e-013
lhumerus -49.3395 1.9939 87.5469
lradius 49.9793
lwrist 7.39801
lhand -11.5955 49.3659
lfingers 7.12502
lthumb 14.4467 78.843
rfemur -13.5184 8.21984 25.7325
rtibia 37.9618
rfoot -19.0977 6.93189
rtoes 34.9819
lfemur -19.7149 5.70722 -20.1559
ltibia 50.7131
lfoot -16.2937 15.8318
ltoes -6.08263
922
root 2.6391 17.8576 4.66141 -0.760334 234.618 0.69473
lowerback 21.7085 -1.59673 -0.0930287
upperback 1.7761 -1.92352 6.27135
thorax -9.99149 -0.942311 7.67311
lowerneck -8.67124 -9.12485 -8.5755
upperneck 15.3116 -11.9606 2.8
head 6.78425 -6.13082 1.19507
rclavicle -4.6118e-014 1.01778e-013
rhumerus -22.225 -19.4429 -70.9318
rradius 38.8796
rwrist 26.7764
rhand -11.0424 -0.794482
rfingers 7.12502
rthumb 14.9797 -30.2327
lclavicle -4.6118e-014 1.01778e-013
lhumerus -48.9031 1.95541 87.9653
lradius 49.7091
lwrist 6.53041
lhand -11.1141 49.042
lfingers 7.12502
lthumb 14.9106 78.4853
rfemur -13.0226 8.5459 26.4465
rtibia 37.6425
rfoot -18.4536 8.41501
rtoes 36.3884
lfemur -20.0631 4.10111 -18.9445
ltibia 52.5053
lfoot -20.1353 11.0398
ltoes 18.641
923
root 2.62905 17.8506 4.65243 -1.65931 233.426 1.29747
lowerback 22.2221 -1.53403 0.0822716
upperback 1.83261 -1.79609 6.49955
thorax -10.223 -0.891907 7.83336
lowerneck -8.60406 -9.12367 -8.84436
upperneck 15.3711 -11.9093 2.60695
head 6.79468 -6.14137 1.18107
rclavicle -1.15295e-014 1.90833e-014
rhumerus -20.6309 -21.0455 -70.6936
rradius 34.3647
rwrist 23.0446
rhand -9.67776 -1.90863
rfingers 7.12502
rthumb 16.2939 -31.2441
lclavicle -1.15295e-014 1.90833e-014
lhumerus -48.635 1.80561 88.2454
lradius 49.2928
lwrist 5.85284
lhand -10.6258 48.5147
lfingers 7.12502
lthumb 15.3809 77.9226
rfemur -12.48 8.61512 26.9013
rtibia 37.5494
rfoot -18.4315 9.11213
rtoes 35.2126
lfemur -20.5839 4.10824 -18.6326
ltibia 53.8447
lfoot -18.7023 11.0237
ltoes 8.25448
924
root 2.6053 17.822 4.65958 -1.6364 231.797 1.32595
lowerback 22.3275 -1.3183 0.196506
upperback 1.78469 -1.4794 6.54644
thorax -10.3779 -0.74355 7.73696
lowerneck -8.95308 -9.12006 -9.58609
upperneck 15.8955 -11.8377 2.83186
head 7.08239 -6.13478 1.33839
rclavicle 6.59965e-014 -1.43125e-014
rhumerus -20.0851 -24.1487 -70.1804
rradius 31.4453
rwrist 20.0254
rhand -8.47915 -2.51741
rfingers 7.12502
rthumb 17.4478 -31.7544
lclavicle 6.59965e-014 -1.43125e-014
lhumerus -48.4906 1.28575 88.576
lradius 49.1139
lwrist 5.50725
lhand -10.5161 48.3593
lfingers 7.12502
lthumb 15.4866 77.7591
rfemur -12.5706 8.81966 26.8285
rtibia 37.5703
rfoot -18.5353 9.50807
rtoes 32.8771
lfemur -21.5196 4.76588 -19.0158
ltibia 54.7922
lfoot -16.3877 12.2032
ltoes -10.7201
925
root 2.56133 17.8273 4.67815 -0.518458 230.147 0.333827
lowerback 21.9719 -1.11808 -0.0770446
upperback 1.74122 -1.29154 6.36365
thorax -10.2549 -0.641909 7.60639
lowerneck -9.09139 -9.1587 -9.04076
upperneck 15.9383 -11.8588 2.18678
head 7.04676 -6.1667 1.04469
rclavicle 2.38542e-014 0
rhumerus -19.4316 -27.6984 -69.5979
rradius 28.4981
rwrist 17.4389
rhand -7.99515 -2.90317
rfingers 7.12502
rthumb 17.9135 -32.0982
lclavicle 2.38542e-014 0
lhumerus -48.048 1.22532 88.6571
lradius 48.7948
lwrist 4.80396
lhand -10.3247 48.347
lfingers 7.12502
lthumb 15.671 77.7323
rfemur -12.95 8.96317 25.8753
rtibia 37.6915
rfoot -18.3955 10.5994
rtoes 32.5248
lfemur -22.2342 3.97322 -19.8002
ltibia 55.2702
lfoot -17.1866 10.265
ltoes -5.61162
926
root 2.51517 17.8335 4.68663 -0.215353 228.74 0.0971413
lowerback 21.7467 -1.03991 0.0393245
upperback 1.7821 -1.178 6.35633
thorax -10.1025 -0.602295 7.47814
lowerneck -9.18344 -9.17248 -8.70936
upperneck 15.8258 -11.8353 1.70796
head 6.97416 -6.17361 0.84656
rclavicle 9.10434e-014 -5.24792e-014
rhumerus -18.9957 -31.5461 -68.9058
rradius 25.8109
rwrist 16.3108
rhand -9.85518 -1.79479
rfingers 7.12502
rthumb 16.1231 -31.1441
lclavicle 9.10434e-014 -5.24792e-014
lhumerus -47.7016 1.2224 88.8312
lradius 48.7547
lwrist 4.28121
lhand -10.2106 47.9696
lfingers 7.12502
lthumb 15.7809 77.3463
rfemur -12.9699 9.12516 25.4886
rtibia 37.8072
rfoot -18.3291 11.8931
rtoes 33.6551
lfemur -22.7185 3.31631 -20.0701
ltibia 55.4706
lfoot -17.1361 8.60033
ltoes -7.58656
927
root 2.48596 17.8377 4.68343 -0.435704 227.536 0.252362
lowerback 22.0851 -0.984044 0.251453
upperback 1.69956 -1.04101 6.4057
thorax -10.401 -0.539851 7.3981
lowerneck -9.43094 -9.14209 -8.80814
upperneck 16.0805 -11.7434 1.52525
head 7.0903 -6.15343 0.794073
rclavicle 1.14102e-013 -1.11319e-014
rhumerus -19.6898 -35.4058 -67.9466
rradius 24.4442
rwrist 16.4691
rhand -11.349 -1.27936
rfingers 7.12502
rthumb 14.6843 -30.7394
lclavicle 1.14102e-013 -1.11319e-014
lhumerus -47.7997 0.976168 88.9587
lradius 49.0027
lwrist 4.17254
lhand -10.371 47.4469
lfingers 7.12502
lthumb 15.6264 76.8357
rfemur -12.7074 9.77806 25.5567
rtibia 37.7326
rfoot -18.2244 12.4045
rtoes 35.2802
lfemur -23.0515 2.55635 -19.9867
ltibia 55.4183
lfoot -16.7435 7.39497
ltoes -12.3303
928
root 2.45741 17.8428 4.68967 -0.421167 226.152 0.169843
lowerback 22.4542 -0.875062 0.290699
upperback 1.64179 -0.87635 6.43733
thorax -10.6893 -0.457582 7.3899
lowerneck -9.8341 -9.09659 -9.3235
upperneck 16.4342 -11.6065 1.68643
head 7.3115 -6.106 0.906008
rclavicle -2.62396e-014 -2.70347e-014
rhumerus -20.4865 -37.6931 -67.2045
rradius 23.9497
rwrist 16.535
rhand -13.3493 -1.16037
rfingers 7.12502
rthumb 12.7564 -30.7507
lclavicle -2.62396e-014 -2.70347e-014
lhumerus -47.7659 1.16541 88.8921
lradius 49.0707
lwrist 3.98837
lhand -10.4165 47.2399
lfingers 7.12502
lthumb 15.5825 76.6321
rfemur -12.6253 10.3465 25.3664
rtibia 37.5788
rfoot -18.4821 12.7658
rtoes 34.6652
lfemur -23.4518 1.66709 -20.0427
ltibia 55.1536
lfoot -16.5489 6.11567
ltoes -13.9334
929
root 2.42283 17.855 4.67909 -0.569243 224.694 0.321413
lowerback 22.48 -0.779166 0.265655
upperback 1.7488 -0.774669 6.54324
thorax -10.5933 -0.420346 7.49203
lowerneck -10.0748 -8.96977 -8.93828
upperneck 16.4706 -11.4157 1.35929
head 7.31068 -6.01859 0.754541
rclavicle -8.3092e-014 1.43125e-014
rhumerus -20.6954 -39.103 -66.8789
rradius 23.2518
rwrist 16.8778
rhand -16.1759 -0.544463
rfingers 7.12502
rthumb 10.0304 -30.2854
lclavicle -8.3092e-014 1.43125e-014
lhumerus -47.477 1.71873 88.6143
lradius 49.0487
lwrist 3.74058
lhand -10.3333 47.6488
lfingers 7.12502
lthumb 15.6627 77.0349
rfemur -12.4834 11.1098 25.4103
rtibia 37.4747
rfoot -19.1054 12.7473
rtoes 31.4784
lfemur -23.6414 0.794428 -19.7763
ltibia 54.6096
lfoot -16.5195 4.32837
ltoes -13.8858
930
root 2.38434 17.8649 4.66273 -0.604343 223.24 0.317719
lowerback 22.5208 -0.648779 0.157706
upperback 1.72738 -0.630418 6.54955
thorax -10.6572 -0.346569 7.52267
lowerneck -9.98229 -8.83951 -8.503
upperneck 16.4175 -11.2654 1.02208
head 7.22228 -5.95427 0.60614
rclavicle 3.57812e-015 -7.31528e-014
rhumerus -21.3932 -40.7348 -66.2458
rradius 22.5831
rwrist 17.5066
rhand -19.1121 1.01354
rfingers 7.12502
rthumb 7.1969 -28.8441
lclavicle 3.57812e-015 -7.31528e-014
lhumerus -47.5624 2.1326 88.2548
lradius 49.1419
lwrist 3.69489
lhand -10.5926 47.8693
lfingers 7.12502
lthumb 15.4129 77.2747
rfemur -12.3737 11.6368 25.3474
rtibia 37.4322
rfoot -18.7526 13.421
rtoes 29.9793
lfemur -23.6554 -0.117448 -19.6517
ltibia 53.7677
lfoot -16.2096 2.91672
ltoes -16.0029
